<?xml version="1.0" encoding="us-ascii" standalone="no"?><svg xmlns="http://www.w3.org/2000/svg" xmlns:xlink="http://www.w3.org/1999/xlink" contentStyleType="text/css" height="483px" preserveAspectRatio="none" style="width:507px;height:483px;background:#FFFFFF;" version="1.1" viewBox="0 0 507 483" width="507px" zoomAndPan="magnify"><defs/><g><!--class Person--><g id="elem_Person"><rect codeLine="2" fill="#F1F1F1" height="103.8633" id="Person" rx="2.5" ry="2.5" style="stroke:#181818;stroke-width:0.5;" width="131" x="173.5" y="7"/><ellipse cx="212.8" cy="23" fill="#A9DCDF" rx="11" ry="11" style="stroke:#181818;stroke-width:1.0;"/><path d="M214.9875,24.7656 L210.8469,24.7656 L210.425,25.7969 L210.8469,25.7969 Q211.4563,25.7969 211.7219,26.0313 Q211.9875,26.2656 211.9875,26.6563 Q211.9875,27.0313 211.7219,27.2656 Q211.4563,27.5 210.8469,27.5 L208.55,27.5 Q207.9406,27.5 207.6906,27.2656 Q207.425,27.0313 207.425,26.6406 Q207.425,26.2656 207.7063,26.0313 Q207.9719,25.7813 208.5969,25.7969 L211.2688,19.1406 L210.1594,19.1406 Q209.55,19.1406 209.2844,18.9063 Q209.0188,18.6719 209.0188,18.2813 Q209.0188,17.9063 209.2844,17.6719 Q209.55,17.4375 210.1594,17.4375 L213.8313,17.4375 L217.2219,25.7969 Q217.8156,25.7969 218.0031,25.9375 Q218.3938,26.2031 218.3938,26.6563 Q218.3938,27.0313 218.1281,27.2656 Q217.8781,27.5 217.2688,27.5 L214.9719,27.5 Q214.3625,27.5 214.0969,27.2656 Q213.8313,27.0313 213.8313,26.6406 Q213.8313,26.2656 214.0969,26.0313 Q214.3625,25.7969 214.9719,25.7969 L215.3938,25.7969 L214.9875,24.7656 Z M214.2688,23.0625 L212.9094,19.6875 L211.5344,23.0625 L214.2688,23.0625 Z " fill="#000000"/><text fill="#000000" font-family="sans-serif" font-size="14" font-style="italic" lengthAdjust="spacing" textLength="45" x="232.2" y="28.7969">Person</text><line style="stroke:#181818;stroke-width:0.5;" x1="174.5" x2="303.5" y1="39" y2="39"/><rect fill="none" height="6" style="stroke:#C82930;stroke-width:1.0;" width="6" x="181.5" y="50.8105"/><text fill="#000000" font-family="sans-serif" font-size="14" lengthAdjust="spacing" textLength="105" x="193.5" y="58.1074">string first_name</text><rect fill="none" height="6" style="stroke:#C82930;stroke-width:1.0;" width="6" x="181.5" y="69.4316"/><text fill="#000000" font-family="sans-serif" font-size="14" lengthAdjust="spacing" textLength="104" x="193.5" y="76.7285">string last_name</text><rect fill="none" height="6" style="stroke:#C82930;stroke-width:1.0;" width="6" x="181.5" y="88.0527"/><text fill="#000000" font-family="sans-serif" font-size="14" lengthAdjust="spacing" textLength="72" x="193.5" y="95.3496">integer age</text><line style="stroke:#181818;stroke-width:0.5;" x1="174.5" x2="303.5" y1="102.8633" y2="102.8633"/></g><!--class Teacher--><g id="elem_Teacher"><rect codeLine="10" fill="#F1F1F1" height="66.6211" id="Teacher" rx="2.5" ry="2.5" style="stroke:#181818;stroke-width:0.5;" width="122" x="7" y="208.5"/><ellipse cx="38.65" cy="224.5" fill="#ADD1B2" rx="11" ry="11" style="stroke:#181818;stroke-width:1.0;"/><path d="M41.4156,220.375 Q41.5719,220.1563 41.7594,220.0469 Q41.9469,219.9375 42.1656,219.9375 Q42.5406,219.9375 42.775,220.2031 Q43.0094,220.4531 43.0094,221.0625 L43.0094,222.5156 Q43.0094,223.125 42.775,223.3906 Q42.5406,223.6563 42.1656,223.6563 Q41.8219,223.6563 41.6188,223.4531 Q41.4156,223.2656 41.3063,222.75 Q41.2594,222.3906 41.0719,222.2031 Q40.7438,221.8281 40.1344,221.6094 Q39.525,221.3906 38.9,221.3906 Q38.1344,221.3906 37.4938,221.7188 Q36.8688,222.0469 36.3688,222.7969 Q35.8844,223.5469 35.8844,224.5781 L35.8844,225.6719 Q35.8844,226.9063 36.775,227.7344 Q37.6656,228.5469 39.2594,228.5469 Q40.1969,228.5469 40.8531,228.2969 Q41.2438,228.1406 41.6656,227.7031 Q41.9313,227.4375 42.0719,227.3594 Q42.2281,227.2813 42.4313,227.2813 Q42.7594,227.2813 43.0094,227.5469 Q43.275,227.7969 43.275,228.1406 Q43.275,228.4844 42.9313,228.8906 Q42.4313,229.4688 41.6344,229.7969 Q40.5563,230.25 39.2594,230.25 Q37.7438,230.25 36.5406,229.625 Q35.5563,229.125 34.8688,228.0625 Q34.1813,226.9844 34.1813,225.7031 L34.1813,224.5469 Q34.1813,223.2188 34.7906,222.0781 Q35.4156,220.9219 36.5094,220.3125 Q37.6031,219.6875 38.8375,219.6875 Q39.5719,219.6875 40.2125,219.8594 Q40.8688,220.0156 41.4156,220.375 Z " fill="#000000"/><text fill="#000000" font-family="sans-serif" font-size="14" lengthAdjust="spacing" textLength="53" x="56.35" y="230.2969">Teacher</text><line style="stroke:#181818;stroke-width:0.5;" x1="8" x2="128" y1="240.5" y2="240.5"/><rect fill="none" height="6" style="stroke:#C82930;stroke-width:1.0;" width="6" x="15" y="252.3105"/><text fill="#000000" font-family="sans-serif" font-size="14" lengthAdjust="spacing" textLength="96" x="27" y="259.6074">date start_date</text><line style="stroke:#181818;stroke-width:0.5;" x1="8" x2="128" y1="267.1211" y2="267.1211"/></g><!--class Student--><g id="elem_Student"><rect codeLine="15" fill="#F1F1F1" height="66.6211" id="Student" rx="2.5" ry="2.5" style="stroke:#181818;stroke-width:0.5;" width="150" x="164" y="208.5"/><ellipse cx="210.25" cy="224.5" fill="#ADD1B2" rx="11" ry="11" style="stroke:#181818;stroke-width:1.0;"/><path d="M213.0156,220.375 Q213.1719,220.1563 213.3594,220.0469 Q213.5469,219.9375 213.7656,219.9375 Q214.1406,219.9375 214.375,220.2031 Q214.6094,220.4531 214.6094,221.0625 L214.6094,222.5156 Q214.6094,223.125 214.375,223.3906 Q214.1406,223.6563 213.7656,223.6563 Q213.4219,223.6563 213.2188,223.4531 Q213.0156,223.2656 212.9063,222.75 Q212.8594,222.3906 212.6719,222.2031 Q212.3438,221.8281 211.7344,221.6094 Q211.125,221.3906 210.5,221.3906 Q209.7344,221.3906 209.0938,221.7188 Q208.4688,222.0469 207.9688,222.7969 Q207.4844,223.5469 207.4844,224.5781 L207.4844,225.6719 Q207.4844,226.9063 208.375,227.7344 Q209.2656,228.5469 210.8594,228.5469 Q211.7969,228.5469 212.4531,228.2969 Q212.8438,228.1406 213.2656,227.7031 Q213.5313,227.4375 213.6719,227.3594 Q213.8281,227.2813 214.0313,227.2813 Q214.3594,227.2813 214.6094,227.5469 Q214.875,227.7969 214.875,228.1406 Q214.875,228.4844 214.5313,228.8906 Q214.0313,229.4688 213.2344,229.7969 Q212.1563,230.25 210.8594,230.25 Q209.3438,230.25 208.1406,229.625 Q207.1563,229.125 206.4688,228.0625 Q205.7813,226.9844 205.7813,225.7031 L205.7813,224.5469 Q205.7813,223.2188 206.3906,222.0781 Q207.0156,220.9219 208.1094,220.3125 Q209.2031,219.6875 210.4375,219.6875 Q211.1719,219.6875 211.8125,219.8594 Q212.4688,220.0156 213.0156,220.375 Z " fill="#000000"/><text fill="#000000" font-family="sans-serif" font-size="14" lengthAdjust="spacing" textLength="49" x="230.75" y="230.2969">Student</text><line style="stroke:#181818;stroke-width:0.5;" x1="165" x2="313" y1="240.5" y2="240.5"/><rect fill="none" height="6" style="stroke:#C82930;stroke-width:1.0;" width="6" x="172" y="252.3105"/><text fill="#000000" font-family="sans-serif" font-size="14" lengthAdjust="spacing" textLength="124" x="184" y="259.6074">integer student_nbr</text><line style="stroke:#181818;stroke-width:0.5;" x1="165" x2="313" y1="267.1211" y2="267.1211"/></g><!--class Address--><g id="elem_Address"><rect codeLine="20" fill="#F1F1F1" height="103.8633" id="Address" rx="2.5" ry="2.5" style="stroke:#181818;stroke-width:0.5;" width="151" x="349.5" y="190"/><ellipse cx="394.75" cy="206" fill="#ADD1B2" rx="11" ry="11" style="stroke:#181818;stroke-width:1.0;"/><path d="M397.5156,201.875 Q397.6719,201.6563 397.8594,201.5469 Q398.0469,201.4375 398.2656,201.4375 Q398.6406,201.4375 398.875,201.7031 Q399.1094,201.9531 399.1094,202.5625 L399.1094,204.0156 Q399.1094,204.625 398.875,204.8906 Q398.6406,205.1563 398.2656,205.1563 Q397.9219,205.1563 397.7188,204.9531 Q397.5156,204.7656 397.4063,204.25 Q397.3594,203.8906 397.1719,203.7031 Q396.8438,203.3281 396.2344,203.1094 Q395.625,202.8906 395,202.8906 Q394.2344,202.8906 393.5938,203.2188 Q392.9688,203.5469 392.4688,204.2969 Q391.9844,205.0469 391.9844,206.0781 L391.9844,207.1719 Q391.9844,208.4063 392.875,209.2344 Q393.7656,210.0469 395.3594,210.0469 Q396.2969,210.0469 396.9531,209.7969 Q397.3438,209.6406 397.7656,209.2031 Q398.0313,208.9375 398.1719,208.8594 Q398.3281,208.7813 398.5313,208.7813 Q398.8594,208.7813 399.1094,209.0469 Q399.375,209.2969 399.375,209.6406 Q399.375,209.9844 399.0313,210.3906 Q398.5313,210.9688 397.7344,211.2969 Q396.6563,211.75 395.3594,211.75 Q393.8438,211.75 392.6406,211.125 Q391.6563,210.625 390.9688,209.5625 Q390.2813,208.4844 390.2813,207.2031 L390.2813,206.0469 Q390.2813,204.7188 390.8906,203.5781 Q391.5156,202.4219 392.6094,201.8125 Q393.7031,201.1875 394.9375,201.1875 Q395.6719,201.1875 396.3125,201.3594 Q396.9688,201.5156 397.5156,201.875 Z " fill="#000000"/><text fill="#000000" font-family="sans-serif" font-size="14" lengthAdjust="spacing" textLength="52" x="415.25" y="211.7969">Address</text><line style="stroke:#181818;stroke-width:0.5;" x1="350.5" x2="499.5" y1="222" y2="222"/><rect fill="none" height="6" style="stroke:#C82930;stroke-width:1.0;" width="6" x="357.5" y="233.8105"/><text fill="#000000" font-family="sans-serif" font-size="14" lengthAdjust="spacing" textLength="75" x="369.5" y="241.1074">string street</text><rect fill="none" height="6" style="stroke:#C82930;stroke-width:1.0;" width="6" x="357.5" y="252.4316"/><text fill="#000000" font-family="sans-serif" font-size="14" lengthAdjust="spacing" textLength="60" x="369.5" y="259.7285">string city</text><rect fill="none" height="6" style="stroke:#C82930;stroke-width:1.0;" width="6" x="357.5" y="271.0527"/><text fill="#000000" font-family="sans-serif" font-size="14" lengthAdjust="spacing" textLength="125" x="369.5" y="278.3496">integer postal_code</text><line style="stroke:#181818;stroke-width:0.5;" x1="350.5" x2="499.5" y1="285.8633" y2="285.8633"/></g><!--class Course--><g id="elem_Course"><rect codeLine="27" fill="#F1F1F1" height="103.8633" id="Course" rx="2.5" ry="2.5" style="stroke:#181818;stroke-width:0.5;" width="122" x="92" y="373"/><ellipse cx="126.8" cy="389" fill="#ADD1B2" rx="11" ry="11" style="stroke:#181818;stroke-width:1.0;"/><path d="M129.5656,384.875 Q129.7219,384.6563 129.9094,384.5469 Q130.0969,384.4375 130.3156,384.4375 Q130.6906,384.4375 130.925,384.7031 Q131.1594,384.9531 131.1594,385.5625 L131.1594,387.0156 Q131.1594,387.625 130.925,387.8906 Q130.6906,388.1563 130.3156,388.1563 Q129.9719,388.1563 129.7688,387.9531 Q129.5656,387.7656 129.4563,387.25 Q129.4094,386.8906 129.2219,386.7031 Q128.8938,386.3281 128.2844,386.1094 Q127.675,385.8906 127.05,385.8906 Q126.2844,385.8906 125.6438,386.2188 Q125.0188,386.5469 124.5188,387.2969 Q124.0344,388.0469 124.0344,389.0781 L124.0344,390.1719 Q124.0344,391.4063 124.925,392.2344 Q125.8156,393.0469 127.4094,393.0469 Q128.3469,393.0469 129.0031,392.7969 Q129.3938,392.6406 129.8156,392.2031 Q130.0813,391.9375 130.2219,391.8594 Q130.3781,391.7813 130.5813,391.7813 Q130.9094,391.7813 131.1594,392.0469 Q131.425,392.2969 131.425,392.6406 Q131.425,392.9844 131.0813,393.3906 Q130.5813,393.9688 129.7844,394.2969 Q128.7063,394.75 127.4094,394.75 Q125.8938,394.75 124.6906,394.125 Q123.7063,393.625 123.0188,392.5625 Q122.3313,391.4844 122.3313,390.2031 L122.3313,389.0469 Q122.3313,387.7188 122.9406,386.5781 Q123.5656,385.4219 124.6594,384.8125 Q125.7531,384.1875 126.9875,384.1875 Q127.7219,384.1875 128.3625,384.3594 Q129.0188,384.5156 129.5656,384.875 Z " fill="#000000"/><text fill="#000000" font-family="sans-serif" font-size="14" lengthAdjust="spacing" textLength="46" x="145.2" y="394.7969">Course</text><line style="stroke:#181818;stroke-width:0.5;" x1="93" x2="213" y1="405" y2="405"/><rect fill="none" height="6" style="stroke:#C82930;stroke-width:1.0;" width="6" x="100" y="416.8105"/><text fill="#000000" font-family="sans-serif" font-size="14" lengthAdjust="spacing" textLength="74" x="112" y="424.1074">string name</text><rect fill="none" height="6" style="stroke:#C82930;stroke-width:1.0;" width="6" x="100" y="435.4316"/><text fill="#000000" font-family="sans-serif" font-size="14" lengthAdjust="spacing" textLength="96" x="112" y="442.7285">date start_date</text><rect fill="none" height="6" style="stroke:#C82930;stroke-width:1.0;" width="6" x="100" y="454.0527"/><text fill="#000000" font-family="sans-serif" font-size="14" lengthAdjust="spacing" textLength="92" x="112" y="461.3496">date end_date</text><line style="stroke:#181818;stroke-width:0.5;" x1="93" x2="213" y1="468.8633" y2="468.8633"/></g><!--reverse link Person to Student--><g id="link_Person_Student"><path codeLine="35" d="M239,129.38 C239,160.53 239,181.33 239,208.32 " fill="none" id="Person-backto-Student" style="stroke:#181818;stroke-width:1.0;"/><polygon fill="none" points="239,111.38,233,129.38,245,129.38,239,111.38" style="stroke:#181818;stroke-width:1.0;"/></g><!--reverse link Person to Teacher--><g id="link_Person_Teacher"><path codeLine="37" d="M178.0984,124.464 C148.6684,155.614 124.38,181.33 98.87,208.32 " fill="none" id="Person-backto-Teacher" style="stroke:#181818;stroke-width:1.0;"/><polygon fill="none" points="190.46,111.38,173.7371,120.3435,182.4598,128.5845,190.46,111.38" style="stroke:#181818;stroke-width:1.0;"/></g><!--link Person to Address--><g id="link_Person_Address"><path codeLine="39" d="M291.8,111.38 C317.04,135.94 342.8698,161.0757 368.0898,185.6157 " fill="none" id="Person-to-Address" style="stroke:#181818;stroke-width:1.0;"/><polygon fill="#181818" points="372.39,189.8,368.7292,180.6568,368.8065,186.3131,363.1502,186.3904,372.39,189.8" style="stroke:#181818;stroke-width:1.0;"/><polygon fill="#000000" points="345.5834,154.1325,341.1505,145.7182,337.0513,149.9308,345.5834,154.1325" style="stroke:#000000;stroke-width:1.0;"/><text fill="#000000" font-family="sans-serif" font-size="13" lengthAdjust="spacing" textLength="25" x="351" y="156.0283">lives</text><text fill="#000000" font-family="sans-serif" font-size="13" lengthAdjust="spacing" textLength="7" x="290.8084" y="132.8541">1</text><text fill="#000000" font-family="sans-serif" font-size="13" lengthAdjust="spacing" textLength="7" x="357.8502" y="178.7005">1</text></g><!--link Student to Course--><g id="link_Student_Course"><path codeLine="41" d="M220.8544,281.1991 C207.9744,308.2991 194.6143,336.4003 179.8043,367.5803 " fill="none" id="Student-Course" style="stroke:#181818;stroke-width:1.0;"/><polygon fill="#181818" points="223.43,275.78,215.9539,282.1916,221.2837,280.2959,223.1794,285.6257,223.43,275.78" style="stroke:#181818;stroke-width:1.0;"/><polygon fill="#181818" points="177.23,373,184.7045,366.5866,179.3752,368.4836,177.4783,363.1543,177.23,373" style="stroke:#181818;stroke-width:1.0;"/><polygon fill="#000000" points="201.8539,338.1615,208.3907,331.2534,203.0818,328.7305,201.8539,338.1615" style="stroke:#000000;stroke-width:1.0;"/><text fill="#000000" font-family="sans-serif" font-size="13" lengthAdjust="spacing" textLength="32" x="213" y="339.0283">takes</text><text fill="#000000" font-family="sans-serif" font-size="13" lengthAdjust="spacing" textLength="22" x="196.8633" y="297.1328">0..n</text><text fill="#000000" font-family="sans-serif" font-size="13" lengthAdjust="spacing" textLength="22" x="157.0905" y="361.5506">0..n</text></g><!--link Teacher to Course--><g id="link_Teacher_Course"><path codeLine="43" d="M85.941,281.2107 C98.671,308.3107 111.8599,336.3889 126.4999,367.5689 " fill="none" id="Teacher-Course" style="stroke:#181818;stroke-width:1.0;"/><polygon fill="#181818" points="83.39,275.78,83.5961,285.6267,85.5158,280.3056,90.837,282.2253,83.39,275.78" style="stroke:#181818;stroke-width:1.0;"/><polygon fill="#181818" points="129.05,373,128.8456,363.1533,126.9249,368.4741,121.6041,366.5534,129.05,373" style="stroke:#181818;stroke-width:1.0;"/><polygon fill="#000000" points="121.1255,338.1712,119.9405,328.7348,114.6203,331.2335,121.1255,338.1712" style="stroke:#000000;stroke-width:1.0;"/><text fill="#000000" font-family="sans-serif" font-size="13" lengthAdjust="spacing" textLength="46" x="128" y="339.0283">teaches</text><text fill="#000000" font-family="sans-serif" font-size="13" lengthAdjust="spacing" textLength="7" x="78.4336" y="297.1328">1</text><text fill="#000000" font-family="sans-serif" font-size="13" lengthAdjust="spacing" textLength="22" x="102.1352" y="361.5506">1..n</text></g><!--SRC=[NP71JiCm38RlVWehzqpiYgf94o-01FSgIqo9A2cANQHfyEvuJRBIvHBhwvS_TkfEBDbvGJywPdocp5E22m3gilejfW7VOcRfa_ka3TOJ_sbCGWDbT0F1Bq09V2NdtnLgv2859uGiBaj_BLVnHUP0IPhNmhZWFftowXv3oCJStDgERaIoGJxAUPltDUdbO- -dSBqRQ-3JD6UckxnrilkcLqWfr3aG0ChhOVTZRPi7jxG-nmsQlK5h3yjUfy977ECtCHu0MeXvsEsImMvHIrrQLbdSHv4hCVlcpYMt_G9Lbugnqwx-0000]--></g></svg>