<svg xmlns="http://www.w3.org/2000/svg" xmlns:xlink="http://www.w3.org/1999/xlink" contentStyleType="text/css" data-diagram-type="SEQUENCE" height="512px" preserveAspectRatio="none" style="width:893px;height:512px;background:#FFFFFF;" version="1.1" viewBox="0 0 893 512" width="893px" zoomAndPan="magnify"><defs/><g><g><title>Administrator</title><rect fill="#FFFFFF" height="53.291" style="stroke:#181818;stroke-width:1;" width="10" x="44.2344" y="93.6211"/></g><g><title>Administrator</title><rect fill="#FFFFFF" height="40.291" style="stroke:#181818;stroke-width:1;" width="10" x="44.2344" y="379.6582"/></g><g><title>System</title><rect fill="#FFFFFF" height="303.0371" style="stroke:#181818;stroke-width:1;" width="10" x="284.9414" y="116.9121"/></g><g><title>Course</title><rect fill="#FFFFFF" height="201.4551" style="stroke:#181818;stroke-width:1;" width="10" x="459.1694" y="178.2031"/></g><g><title>newTeacher. Teacher</title><rect fill="#FFFFFF" height="115.873" style="stroke:#181818;stroke-width:1;" width="10" x="622.8838" y="304.0762"/></g><g><title>formerTeacher. Teacher</title><rect fill="#FFFFFF" height="30" style="stroke:#181818;stroke-width:1;" width="10" x="790.4453" y="235.7852"/></g><rect fill="none" height="80.582" style="stroke:#000000;stroke-width:1.5;" width="463.3135" x="424.604" y="193.2031"/><g><title>Administrator</title><rect fill="#000000" fill-opacity="0.00000" height="345.3281" width="8" x="45.2344" y="83.6211"/><line style="stroke:#181818;stroke-width:0.5;stroke-dasharray:5,5;" x1="49" x2="49" y1="83.6211" y2="428.9492"/></g><g><title>System</title><rect fill="#000000" fill-opacity="0.00000" height="345.3281" width="8" x="285.9414" y="83.6211"/><line style="stroke:#181818;stroke-width:0.5;stroke-dasharray:5,5;" x1="289.6035" x2="289.6035" y1="83.6211" y2="428.9492"/></g><g><title>Course</title><rect fill="#000000" fill-opacity="0.00000" height="345.3281" width="8" x="460.1694" y="83.6211"/><line style="stroke:#181818;stroke-width:0.5;stroke-dasharray:5,5;" x1="463.604" x2="463.604" y1="83.6211" y2="428.9492"/></g><g><title>newTeacher. Teacher</title><rect fill="#000000" fill-opacity="0.00000" height="345.3281" width="8" x="623.8838" y="83.6211"/><line style="stroke:#181818;stroke-width:0.5;stroke-dasharray:5,5;" x1="627.7944" x2="627.7944" y1="83.6211" y2="428.9492"/></g><g><title>formerTeacher. Teacher</title><rect fill="#000000" fill-opacity="0.00000" height="345.3281" width="8" x="791.4453" y="83.6211"/><line style="stroke:#181818;stroke-width:0.5;stroke-dasharray:5,5;" x1="794.9731" x2="794.9731" y1="83.6211" y2="428.9492"/></g><g class="participant participant-head" data-participant="Admin"><text fill="#000000" font-family="sans-serif" font-size="14" lengthAdjust="spacing" textLength="82.4688" x="5" y="80.1074">Administrator</text><ellipse cx="49.2344" cy="13.5" fill="#E2E2F0" rx="8" ry="8" style="stroke:#181818;stroke-width:0.5;"/><path d="M49.2344,21.5 L49.2344,48.5 M36.2344,29.5 L62.2344,29.5 M49.2344,48.5 L36.2344,63.5 M49.2344,48.5 L62.2344,63.5" fill="none" style="stroke:#181818;stroke-width:0.5;"/></g><g class="participant participant-tail" data-participant="Admin"><text fill="#000000" font-family="sans-serif" font-size="14" lengthAdjust="spacing" textLength="82.4688" x="5" y="443.0566">Administrator</text><ellipse cx="49.2344" cy="455.0703" fill="#E2E2F0" rx="8" ry="8" style="stroke:#181818;stroke-width:0.5;"/><path d="M49.2344,463.0703 L49.2344,490.0703 M36.2344,471.0703 L62.2344,471.0703 M49.2344,490.0703 L36.2344,505.0703 M49.2344,490.0703 L62.2344,505.0703" fill="none" style="stroke:#181818;stroke-width:0.5;"/></g><g class="participant participant-head" data-participant="System"><rect fill="#E2E2F0" height="32.6211" rx="2.5" ry="2.5" style="stroke:#181818;stroke-width:0.5;" width="60.6758" x="259.6035" y="50"/><text fill="#000000" font-family="sans-serif" font-size="14" lengthAdjust="spacing" textLength="46.6758" x="266.6035" y="72.1074">System</text></g><g class="participant participant-tail" data-participant="System"><rect fill="#E2E2F0" height="32.6211" rx="2.5" ry="2.5" style="stroke:#181818;stroke-width:0.5;" width="60.6758" x="259.6035" y="427.9492"/><text fill="#000000" font-family="sans-serif" font-size="14" lengthAdjust="spacing" textLength="46.6758" x="266.6035" y="450.0566">System</text></g><g class="participant participant-head" data-participant="Course"><rect fill="#E2E2F0" height="32.6211" rx="2.5" ry="2.5" style="stroke:#181818;stroke-width:0.5;" width="59.1309" x="434.604" y="50"/><text fill="#000000" font-family="sans-serif" font-size="14" lengthAdjust="spacing" textLength="45.1309" x="441.604" y="72.1074">Course</text></g><g class="participant participant-tail" data-participant="Course"><rect fill="#E2E2F0" height="32.6211" rx="2.5" ry="2.5" style="stroke:#181818;stroke-width:0.5;" width="59.1309" x="434.604" y="427.9492"/><text fill="#000000" font-family="sans-serif" font-size="14" lengthAdjust="spacing" textLength="45.1309" x="441.604" y="450.0566">Course</text></g><g class="participant participant-head" data-participant="NewTeacher"><rect fill="#E2E2F0" height="32.6211" rx="2.5" ry="2.5" style="stroke:#181818;stroke-width:0.5;" width="150.1787" x="552.7944" y="50"/><text fill="#000000" font-family="sans-serif" font-size="14" lengthAdjust="spacing" textLength="136.1787" x="559.7944" y="72.1074">newTeacher: Teacher</text></g><g class="participant participant-tail" data-participant="NewTeacher"><rect fill="#E2E2F0" height="32.6211" rx="2.5" ry="2.5" style="stroke:#181818;stroke-width:0.5;" width="150.1787" x="552.7944" y="427.9492"/><text fill="#000000" font-family="sans-serif" font-size="14" lengthAdjust="spacing" textLength="136.1787" x="559.7944" y="450.0566">newTeacher: Teacher</text></g><g class="participant participant-head" data-participant="FormerTeacher"><rect fill="#E2E2F0" height="32.6211" rx="2.5" ry="2.5" style="stroke:#181818;stroke-width:0.5;" width="164.9443" x="712.9731" y="50"/><text fill="#000000" font-family="sans-serif" font-size="14" lengthAdjust="spacing" textLength="150.9443" x="719.9731" y="72.1074">formerTeacher: Teacher</text></g><g class="participant participant-tail" data-participant="FormerTeacher"><rect fill="#E2E2F0" height="32.6211" rx="2.5" ry="2.5" style="stroke:#181818;stroke-width:0.5;" width="164.9443" x="712.9731" y="427.9492"/><text fill="#000000" font-family="sans-serif" font-size="14" lengthAdjust="spacing" textLength="150.9443" x="719.9731" y="450.0566">formerTeacher: Teacher</text></g><g><title>Administrator</title><rect fill="#FFFFFF" height="53.291" style="stroke:#181818;stroke-width:1;" width="10" x="44.2344" y="93.6211"/></g><g><title>Administrator</title><rect fill="#FFFFFF" height="40.291" style="stroke:#181818;stroke-width:1;" width="10" x="44.2344" y="379.6582"/></g><g><title>System</title><rect fill="#FFFFFF" height="303.0371" style="stroke:#181818;stroke-width:1;" width="10" x="284.9414" y="116.9121"/></g><g><title>Course</title><rect fill="#FFFFFF" height="201.4551" style="stroke:#181818;stroke-width:1;" width="10" x="459.1694" y="178.2031"/></g><g><title>newTeacher. Teacher</title><rect fill="#FFFFFF" height="115.873" style="stroke:#181818;stroke-width:1;" width="10" x="622.8838" y="304.0762"/></g><g><title>formerTeacher. Teacher</title><rect fill="#FFFFFF" height="30" style="stroke:#181818;stroke-width:1;" width="10" x="790.4453" y="235.7852"/></g><g class="message" data-participant-1="Admin" data-participant-2="System"><polygon fill="#181818" points="272.9414,112.9121,282.9414,116.9121,272.9414,120.9121,276.9414,116.9121" style="stroke:#181818;stroke-width:1;"/><line style="stroke:#181818;stroke-width:1;" x1="54.2344" x2="278.9414" y1="116.9121" y2="116.9121"/><text fill="#000000" font-family="sans-serif" font-size="13" lengthAdjust="spacing" textLength="211.707" x="61.2344" y="111.6494">assignTeacher(course, newTeacher)</text></g><g class="message" data-participant-1="System" data-participant-2="Course"><polygon fill="#181818" points="447.1694,174.2031,457.1694,178.2031,447.1694,182.2031,451.1694,178.2031" style="stroke:#181818;stroke-width:1;"/><line style="stroke:#181818;stroke-width:1;" x1="294.9414" x2="453.1694" y1="178.2031" y2="178.2031"/><text fill="#000000" font-family="sans-serif" font-size="13" lengthAdjust="spacing" textLength="145.228" x="301.9414" y="172.9404">setTeacher(newTeacher)</text></g><path d="M424.604,193.2031 L484.7749,193.2031 L484.7749,202.4941 L474.7749,212.4941 L424.604,212.4941 L424.604,193.2031" fill="#EEEEEE" style="stroke:#000000;stroke-width:1.5;"/><rect fill="none" height="80.582" style="stroke:#000000;stroke-width:1.5;" width="463.3135" x="424.604" y="193.2031"/><text fill="#000000" font-family="sans-serif" font-size="13" font-weight="bold" lengthAdjust="spacing" textLength="15.1709" x="439.604" y="208.2314">alt</text><text fill="#000000" font-family="sans-serif" font-size="11" font-weight="bold" lengthAdjust="spacing" textLength="121.6606" x="499.7749" y="207.0732">[Former teacher exists]</text><g class="message" data-participant-1="Course" data-participant-2="FormerTeacher"><polygon fill="#181818" points="778.4453,231.7852,788.4453,235.7852,778.4453,239.7852,782.4453,235.7852" style="stroke:#181818;stroke-width:1;"/><line style="stroke:#181818;stroke-width:1;" x1="469.1694" x2="784.4453" y1="235.7852" y2="235.7852"/><text fill="#000000" font-family="sans-serif" font-size="13" lengthAdjust="spacing" textLength="114.1436" x="476.1694" y="230.5225">removeCourse(this)</text></g><g class="message" data-participant-1="Course" data-participant-2="NewTeacher"><polygon fill="#181818" points="610.8838,300.0762,620.8838,304.0762,610.8838,308.0762,614.8838,304.0762" style="stroke:#181818;stroke-width:1;"/><line style="stroke:#181818;stroke-width:1;" x1="469.1694" x2="616.8838" y1="304.0762" y2="304.0762"/><text fill="#000000" font-family="sans-serif" font-size="13" lengthAdjust="spacing" textLength="92.4854" x="476.1694" y="298.8135">addCourse(this)</text></g><g class="message" data-participant-1="Course" data-participant-2="Course"><line style="stroke:#181818;stroke-width:1;" x1="469.1694" x2="511.1694" y1="335.3672" y2="335.3672"/><line style="stroke:#181818;stroke-width:1;" x1="511.1694" x2="511.1694" y1="335.3672" y2="348.3672"/><line style="stroke:#181818;stroke-width:1;" x1="470.1694" x2="511.1694" y1="348.3672" y2="348.3672"/><polygon fill="#181818" points="480.1694,344.3672,470.1694,348.3672,480.1694,352.3672,476.1694,348.3672" style="stroke:#181818;stroke-width:1;"/><text fill="#000000" font-family="sans-serif" font-size="13" lengthAdjust="spacing" textLength="129.7144" x="476.1694" y="330.1045">teacher = newTeacher</text></g><g class="message" data-participant-1="Course" data-participant-2="System"><polygon fill="#181818" points="305.9414,375.6582,295.9414,379.6582,305.9414,383.6582,301.9414,379.6582" style="stroke:#181818;stroke-width:1;"/><line style="stroke:#181818;stroke-width:1;stroke-dasharray:2,2;" x1="299.9414" x2="463.1694" y1="379.6582" y2="379.6582"/><text fill="#000000" font-family="sans-serif" font-size="13" lengthAdjust="spacing" textLength="135.1035" x="311.9414" y="374.3955">assignmentConfirmed()</text></g><g class="message" data-participant-1="System" data-participant-2="Admin"><polygon fill="#181818" points="65.2344,406.9492,55.2344,410.9492,65.2344,414.9492,61.2344,410.9492" style="stroke:#181818;stroke-width:1;"/><line style="stroke:#181818;stroke-width:1;stroke-dasharray:2,2;" x1="59.2344" x2="283.9414" y1="410.9492" y2="410.9492"/><text fill="#000000" font-family="sans-serif" font-size="13" lengthAdjust="spacing" textLength="132.2153" x="71.2344" y="405.6865">confirmationMessage()</text></g><!--SRC=[RP51RiCW44Ntd6BabIsr5x3KIbQgxffDUm44amIfG0JJDBbz9q0CgFR20lxCuyz7Al81XaLRuqoa87axW8oGJiHP1ZBAdAKZ63vlaT0cDIzxUUT_GiGavsKlE_pzGgbE66OeYrIxNy_x-eCF5iDcotih2R4eCXT9M3odFpo_5fCmSqiqHrVgHvNCFK4rD5L46UoDXGvQM4pDip4r8ZsGcwWIWlocOXWerm1UEUeeWBz2Osut5EC3Md_1h8zqCd5A3Ik-3-4kDQPx4PqMejvK4xzdetLtnyfltgMshiC_HdbfOgnt_0_VegETTmV3llGujG6Nd9Rjm1cL7tG6bVib6Uy-C4PvH2Rz0G00]--></g></svg>