<?xml version="1.0" encoding="us-ascii" standalone="no"?><svg xmlns="http://www.w3.org/2000/svg" xmlns:xlink="http://www.w3.org/1999/xlink" contentStyleType="text/css" height="431px" preserveAspectRatio="none" style="width:586px;height:431px;background:#FFFFFF;" version="1.1" viewBox="0 0 586 431" width="586px" zoomAndPan="magnify"><defs/><g><rect fill="#FFFFFF" height="203.2031" style="stroke:#181818;stroke-width:1.0;" width="10" x="151" y="126.9121"/><rect fill="#FFFFFF" height="30" style="stroke:#181818;stroke-width:1.0;" width="10" x="272" y="177.5332"/><rect fill="#FFFFFF" height="30" style="stroke:#181818;stroke-width:1.0;" width="10" x="406.5" y="238.8242"/><rect fill="#FFFFFF" height="30" style="stroke:#181818;stroke-width:1.0;" width="10" x="527.5" y="300.1152"/><line style="stroke:#181818;stroke-width:0.5;stroke-dasharray:5.0,5.0;" x1="37" x2="37" y1="83.6211" y2="348.1152"/><line style="stroke:#181818;stroke-width:0.5;stroke-dasharray:5.0,5.0;" x1="156" x2="156" y1="133.9316" y2="348.1152"/><line style="stroke:#181818;stroke-width:0.5;stroke-dasharray:5.0,5.0;" x1="277" x2="277" y1="83.6211" y2="348.1152"/><line style="stroke:#181818;stroke-width:0.5;stroke-dasharray:5.0,5.0;" x1="411" x2="411" y1="83.6211" y2="348.1152"/><line style="stroke:#181818;stroke-width:0.5;stroke-dasharray:5.0,5.0;" x1="532" x2="532" y1="83.6211" y2="348.1152"/><text fill="#000000" font-family="sans-serif" font-size="14" lengthAdjust="spacing" textLength="58" x="5" y="80.1074">Directeur</text><ellipse cx="37" cy="13.5" fill="#E2E2F0" rx="8" ry="8" style="stroke:#181818;stroke-width:0.5;"/><path d="M37,21.5 L37,48.5 M24,29.5 L50,29.5 M37,48.5 L24,63.5 M37,48.5 L50,63.5 " fill="none" style="stroke:#181818;stroke-width:0.5;"/><text fill="#000000" font-family="sans-serif" font-size="14" lengthAdjust="spacing" textLength="58" x="5" y="362.2227">Directeur</text><ellipse cx="37" cy="374.2363" fill="#E2E2F0" rx="8" ry="8" style="stroke:#181818;stroke-width:0.5;"/><path d="M37,382.2363 L37,409.2363 M24,390.2363 L50,390.2363 M37,409.2363 L24,424.2363 M37,409.2363 L50,424.2363 " fill="none" style="stroke:#181818;stroke-width:0.5;"/><text fill="#000000" font-family="sans-serif" font-size="14" lengthAdjust="spacing" textLength="84" x="111" y="362.2227">paul: Student</text><ellipse cx="156" cy="381.7363" fill="#E2E2F0" rx="12" ry="12" style="stroke:#181818;stroke-width:0.5;"/><line style="stroke:#181818;stroke-width:0.5;" x1="144" x2="168" y1="395.7363" y2="395.7363"/><text fill="#000000" font-family="sans-serif" font-size="14" lengthAdjust="spacing" textLength="126" x="211" y="80.1074">geographie: Course</text><ellipse cx="277" cy="49" fill="#E2E2F0" rx="12" ry="12" style="stroke:#181818;stroke-width:0.5;"/><line style="stroke:#181818;stroke-width:0.5;" x1="265" x2="289" y1="63" y2="63"/><text fill="#000000" font-family="sans-serif" font-size="14" lengthAdjust="spacing" textLength="126" x="211" y="362.2227">geographie: Course</text><ellipse cx="277" cy="381.7363" fill="#E2E2F0" rx="12" ry="12" style="stroke:#181818;stroke-width:0.5;"/><line style="stroke:#181818;stroke-width:0.5;" x1="265" x2="289" y1="395.7363" y2="395.7363"/><text fill="#000000" font-family="sans-serif" font-size="14" lengthAdjust="spacing" textLength="111" x="353" y="80.1074">physique: Course</text><ellipse cx="411.5" cy="49" fill="#E2E2F0" rx="12" ry="12" style="stroke:#181818;stroke-width:0.5;"/><line style="stroke:#181818;stroke-width:0.5;" x1="399.5" x2="423.5" y1="63" y2="63"/><text fill="#000000" font-family="sans-serif" font-size="14" lengthAdjust="spacing" textLength="111" x="353" y="362.2227">physique: Course</text><ellipse cx="411.5" cy="381.7363" fill="#E2E2F0" rx="12" ry="12" style="stroke:#181818;stroke-width:0.5;"/><line style="stroke:#181818;stroke-width:0.5;" x1="399.5" x2="423.5" y1="395.7363" y2="395.7363"/><text fill="#000000" font-family="sans-serif" font-size="14" lengthAdjust="spacing" textLength="99" x="480" y="80.1074">anglais: Course</text><ellipse cx="532.5" cy="49" fill="#E2E2F0" rx="12" ry="12" style="stroke:#181818;stroke-width:0.5;"/><line style="stroke:#181818;stroke-width:0.5;" x1="520.5" x2="544.5" y1="63" y2="63"/><text fill="#000000" font-family="sans-serif" font-size="14" lengthAdjust="spacing" textLength="99" x="480" y="362.2227">anglais: Course</text><ellipse cx="532.5" cy="381.7363" fill="#E2E2F0" rx="12" ry="12" style="stroke:#181818;stroke-width:0.5;"/><line style="stroke:#181818;stroke-width:0.5;" x1="520.5" x2="544.5" y1="395.7363" y2="395.7363"/><rect fill="#FFFFFF" height="203.2031" style="stroke:#181818;stroke-width:1.0;" width="10" x="151" y="126.9121"/><rect fill="#FFFFFF" height="30" style="stroke:#181818;stroke-width:1.0;" width="10" x="272" y="177.5332"/><rect fill="#FFFFFF" height="30" style="stroke:#181818;stroke-width:1.0;" width="10" x="406.5" y="238.8242"/><rect fill="#FFFFFF" height="30" style="stroke:#181818;stroke-width:1.0;" width="10" x="527.5" y="300.1152"/><polygon fill="#181818" points="99,112.9121,109,116.9121,99,120.9121,103,116.9121" style="stroke:#181818;stroke-width:1.0;"/><line style="stroke:#181818;stroke-width:1.0;" x1="37" x2="105" y1="116.9121" y2="116.9121"/><text fill="#000000" font-family="sans-serif" font-size="13" lengthAdjust="spacing" textLength="50" x="44" y="111.6494">&#171;create&#187;</text><text fill="#000000" font-family="sans-serif" font-size="14" lengthAdjust="spacing" textLength="84" x="111" y="140.7285">paul: Student</text><ellipse cx="156" cy="109.6211" fill="#E2E2F0" rx="12" ry="12" style="stroke:#181818;stroke-width:0.5;"/><line style="stroke:#181818;stroke-width:0.5;" x1="144" x2="168" y1="123.6211" y2="123.6211"/><polygon fill="#181818" points="260,173.5332,270,177.5332,260,181.5332,264,177.5332" style="stroke:#181818;stroke-width:1.0;"/><line style="stroke:#181818;stroke-width:1.0;" x1="161" x2="266" y1="177.5332" y2="177.5332"/><text fill="#000000" font-family="sans-serif" font-size="13" lengthAdjust="spacing" textLength="67" x="168" y="172.2705">add_course</text><polygon fill="#181818" points="394.5,234.8242,404.5,238.8242,394.5,242.8242,398.5,238.8242" style="stroke:#181818;stroke-width:1.0;"/><line style="stroke:#181818;stroke-width:1.0;" x1="161" x2="400.5" y1="238.8242" y2="238.8242"/><text fill="#000000" font-family="sans-serif" font-size="13" lengthAdjust="spacing" textLength="67" x="168" y="233.5615">add_course</text><polygon fill="#181818" points="515.5,296.1152,525.5,300.1152,515.5,304.1152,519.5,300.1152" style="stroke:#181818;stroke-width:1.0;"/><line style="stroke:#181818;stroke-width:1.0;" x1="161" x2="521.5" y1="300.1152" y2="300.1152"/><text fill="#000000" font-family="sans-serif" font-size="13" lengthAdjust="spacing" textLength="67" x="168" y="294.8525">add_course</text><!--SRC=[RP1D2iCW48NtdcB8lXS8mKrwWnwW33eaGeYfZeNSlZK_eu5iX3m_FjyB6lO1dYwGOKe1C88zFnJDx7Y5Pi4qjV3YPFz9avcSoFL0VWYuZ8vQw7qAaJQcn4Kqhj5zqfKxGw5m7YPqyG8TcL8c43Bj1QGfF3Ji9RiE3a9hfT2m-mgUZqpMVT7QjzcUAN1LtD9TAgQovyuZmogBPEAGjNUAStPba3zHM_Ey7m00]--></g></svg>